<?xml version="1.0" encoding="utf-8"?>
<!-- Generator: Adobe Illustrator 27.9.3, SVG Export Plug-In . SVG Version: 9.03 Build 53313)  -->
<svg version="1.1" id="Calque_1" xmlns="http://www.w3.org/2000/svg" xmlns:xlink="http://www.w3.org/1999/xlink" x="0px" y="0px"
	 viewBox="0 0 375.8 201.2" style="enable-background:new 0 0 375.8 201.2;" xml:space="preserve">
<style type="text/css">
	.st0{enable-background:new    ;}
	.st1{fill:#06050B;}
</style>
<g>
	<g class="st0">
		<path class="st1" d="M180.2,93.2c0.5,0,1.1,0,1.9-0.1c0.8-0.1,1.6-0.2,2.5-0.5c0.9-0.3,1.6-0.7,2.4-1.3c0.7-0.6,1.2-1.5,1.6-2.6
			h6.7c-0.4,3.1-1.8,5.5-4.3,7.1c-2.5,1.6-6,2.4-10.7,2.4c-5.1,0-8.9-1-11.4-2.9s-3.7-4.8-3.7-8.5v-1.3c0-3.8,1.2-6.6,3.7-8.5
			c2.5-1.9,6.3-2.9,11.4-2.9c4.6,0,8.2,0.8,10.7,2.4c2.5,1.6,3.9,4,4.3,7.1h-6.7c-0.3-1.1-0.9-2-1.6-2.6c-0.7-0.6-1.5-1.1-2.4-1.3
			c-0.9-0.3-1.7-0.4-2.5-0.5c-0.8-0.1-1.4-0.1-1.9-0.1c-0.4,0-1,0-1.7,0.1c-0.7,0-1.5,0.2-2.2,0.4c-0.8,0.2-1.5,0.5-2.2,1
			c-0.7,0.5-1.3,1.1-1.7,2c-0.5,0.8-0.7,1.9-0.7,3.3v0.6c0,1.3,0.2,2.4,0.7,3.3c0.5,0.8,1,1.5,1.7,2c0.7,0.5,1.4,0.8,2.2,1
			c0.8,0.2,1.5,0.3,2.2,0.4C179.2,93.2,179.7,93.2,180.2,93.2z"/>
		<path class="st1" d="M216.8,74.7l11.5,23.1h-7.3l-2.2-4.8h-13.5l-2.2,4.8h-7.3l11.5-23.1H216.8z M216.6,88.2l-4.6-9.8l-4.6,9.8
			H216.6z"/>
		<path class="st1" d="M259.9,90.7c0,0.3,0,0.7-0.1,1.2c-0.1,0.5-0.2,1-0.5,1.6c-0.3,0.6-0.7,1.1-1.3,1.7c-0.6,0.6-1.5,1.1-2.6,1.6
			c-1.1,0.5-2.5,0.8-4.2,1.1s-3.8,0.4-6.3,0.4c-2,0-3.9-0.1-5.7-0.3c-1.8-0.2-3.4-0.6-4.8-1.1s-2.5-1.2-3.3-2.1
			c-0.8-0.9-1.2-2.1-1.2-3.5h7.3c0,0.6,0.2,1,0.5,1.4c0.4,0.4,0.8,0.6,1.4,0.8c0.6,0.2,1.2,0.3,1.9,0.4c0.7,0.1,1.4,0.1,2,0.2
			c0.7,0,1.3,0,1.8,0c1.7,0,3-0.1,4.1-0.3c1-0.2,1.9-0.4,2.4-0.8c0.6-0.3,1-0.7,1.2-1.1c0.2-0.4,0.3-0.9,0.3-1.3
			c0-0.6-0.3-1.1-1-1.4s-1.6-0.6-2.8-0.7c-1.2-0.1-2.7-0.3-4.4-0.3c-0.5,0-0.9,0-1.4-0.1c-1.5-0.1-2.9-0.2-4.2-0.3s-2.6-0.3-3.7-0.5
			c-1.1-0.2-2.1-0.6-3-1c-0.8-0.4-1.5-1-2-1.8c-0.5-0.7-0.7-1.7-0.7-2.8c0-0.3,0-0.7,0.1-1.2c0.1-0.5,0.2-1,0.5-1.6
			c0.3-0.6,0.7-1.1,1.3-1.7c0.6-0.6,1.5-1.1,2.6-1.6s2.5-0.8,4.2-1.1c1.7-0.3,3.8-0.4,6.3-0.4c2,0,3.9,0.1,5.7,0.3
			c1.8,0.2,3.4,0.6,4.8,1.1s2.5,1.2,3.3,2.1c0.8,0.9,1.2,2.1,1.2,3.5h-7.3c0-0.6-0.2-1-0.5-1.4c-0.4-0.4-0.8-0.6-1.4-0.8
			c-0.6-0.2-1.2-0.4-1.9-0.4c-0.7-0.1-1.4-0.1-2-0.2s-1.3,0-1.8,0c-1.7,0-3,0.1-4.1,0.3c-1,0.2-1.9,0.4-2.4,0.8
			c-0.6,0.3-1,0.7-1.2,1.1c-0.2,0.4-0.3,0.9-0.3,1.3c0,0.6,0.3,1.1,1,1.4c0.7,0.3,1.6,0.5,2.8,0.7c1.2,0.1,2.7,0.2,4.4,0.3
			c0.5,0,0.9,0.1,1.4,0.1c1.5,0.1,2.9,0.2,4.2,0.3c1.3,0.1,2.6,0.3,3.7,0.5c1.1,0.2,2.1,0.6,3,1c0.8,0.4,1.5,1,2,1.8
			C259.7,88.6,259.9,89.5,259.9,90.7z"/>
		<path class="st1" d="M282.7,74.7l11.5,23.1H287l-2.2-4.8h-13.5l-2.2,4.8h-7.3l11.5-23.1H282.7z M282.5,88.2l-4.6-9.8l-4.6,9.8
			H282.5z"/>
	</g>
	<g class="st0">
		<path class="st1" d="M186.2,108c1.4,0,2.7,0.4,3.9,1.1c1.2,0.8,2.1,1.8,2.8,3c0.7,1.3,1,2.7,1,4.2s-0.3,2.9-1,4.2s-1.6,2.3-2.8,3
			c-1.2,0.7-2.5,1.1-3.9,1.1h-14.6v6.4h-6.5V108h0.3h6.3H186.2z M184.4,119.5c0.8,0,1.5-0.3,2.1-0.9c0.6-0.6,0.9-1.4,0.9-2.3
			c0-0.9-0.3-1.6-0.9-2.3c-0.6-0.6-1.3-0.9-2.1-0.9h-12.8v6.4H184.4z"/>
		<path class="st1" d="M213.1,108l11.5,23.1h-7.3l-2.2-4.8h-13.5l-2.2,4.8H192l11.5-23.1H213.1z M212.9,121.5l-4.6-9.8l-4.6,9.8
			H212.9z"/>
		<path class="st1" d="M247.5,108c1.9,0,3.7,0.5,5.2,1.5c1.5,1,2.7,2.4,3.6,4.1c0.9,1.7,1.3,3.7,1.3,5.9c0,2.2-0.4,4.2-1.3,5.9
			c-0.9,1.7-2.1,3.1-3.6,4.1c-1.5,1-3.3,1.5-5.2,1.5h-20.2V108H247.5z M245.7,125.9c1.6,0,2.9-0.6,3.9-1.8s1.5-2.7,1.5-4.6
			s-0.5-3.4-1.5-4.6c-1-1.2-2.3-1.8-3.9-1.8h-11.9v12.8H245.7z"/>
		<path class="st1" d="M288.7,112.6h-20v4.7h20v4.4h-20v4.7h20v4.6h-26.5V108h26.5V112.6z"/>
		<path class="st1" d="M294.7,108h6.5v17.9h20.1v5.1h-26.7V108z"/>
	</g>
	<g>
		<path class="st1" d="M150.5,73.8v35.6c0,15.5-12.5,28-28,28h-9.7v20.5H90.6c-6.7,0-12.1-5.4-12.1-12.1v-39.1h40.3V73.8H150.5z"/>
	</g>
	<path class="st1" d="M118.8,73.8H78.5v32.9H46.8V71.1c0-15.5,12.5-28,28-28h9.7h34.4L118.8,73.8z"/>
	<g class="st0">
		<path class="st1" d="M175.6,149.5c-0.3-0.6-0.8-1-1.4-1.3c-0.6-0.3-1.3-0.5-2.1-0.5c-0.9,0-1.6,0.2-2.3,0.5s-1.2,0.8-1.6,1.5
			c-0.4,0.6-0.6,1.4-0.6,2.2c0,0.9,0.2,1.6,0.6,2.3c0.4,0.7,0.9,1.2,1.6,1.5s1.4,0.5,2.3,0.5c1.2,0,2.1-0.3,2.8-0.9
			c0.7-0.6,1.2-1.4,1.3-2.4h-4.9v-1.5h7.2v1.5c-0.1,0.9-0.5,1.8-1.1,2.5c-0.6,0.8-1.3,1.4-2.3,1.8s-2,0.7-3.1,0.7
			c-1.2,0-2.3-0.3-3.3-0.8s-1.8-1.2-2.4-2.2s-0.9-2-0.9-3.1c0-1.2,0.3-2.2,0.9-3.1s1.4-1.6,2.4-2.2c1-0.5,2.1-0.8,3.3-0.8
			c1.4,0,2.6,0.3,3.7,0.9c1.1,0.6,1.9,1.5,2.3,2.6H175.6z"/>
		<path class="st1" d="M187.4,157.9l-3-4.7h-1.6v4.7h-2.1v-11.8h4.5c1,0,1.8,0.2,2.5,0.5s1.2,0.7,1.6,1.3c0.3,0.5,0.5,1.1,0.5,1.8
			c0,0.8-0.2,1.5-0.7,2.1c-0.5,0.6-1.2,1.1-2.3,1.3l3.2,4.9H187.4z M182.8,151.7h2.4c0.8,0,1.4-0.2,1.8-0.5c0.4-0.4,0.6-0.9,0.6-1.5
			c0-0.6-0.2-1.1-0.6-1.4c-0.4-0.3-1-0.5-1.8-0.5h-2.4V151.7z"/>
		<path class="st1" d="M195,157.3c-1-0.5-1.8-1.2-2.4-2.2c-0.6-0.9-0.9-2-0.9-3.1c0-1.2,0.3-2.2,0.9-3.1c0.6-0.9,1.4-1.6,2.4-2.2
			c1-0.5,2.1-0.8,3.3-0.8c1.2,0,2.3,0.3,3.4,0.8s1.8,1.2,2.4,2.2s0.9,2,0.9,3.1c0,1.2-0.3,2.2-0.9,3.1s-1.4,1.6-2.4,2.2
			s-2.1,0.8-3.4,0.8C197.2,158.1,196,157.8,195,157.3z M200.7,155.8c0.7-0.4,1.2-0.9,1.6-1.5c0.4-0.7,0.6-1.4,0.6-2.3
			c0-0.9-0.2-1.6-0.6-2.3c-0.4-0.7-0.9-1.2-1.6-1.5c-0.7-0.4-1.4-0.5-2.3-0.5s-1.6,0.2-2.3,0.5c-0.7,0.4-1.2,0.9-1.6,1.5
			c-0.4,0.7-0.6,1.4-0.6,2.3c0,0.9,0.2,1.6,0.6,2.3c0.4,0.7,0.9,1.2,1.6,1.5c0.7,0.4,1.4,0.5,2.3,0.5S200,156.2,200.7,155.8z"/>
		<path class="st1" d="M209.2,146.1v7.5c0,0.9,0.3,1.6,0.8,2c0.5,0.5,1.2,0.7,2.2,0.7c0.9,0,1.7-0.2,2.2-0.7c0.5-0.5,0.8-1.1,0.8-2
			v-7.5h2.1v7.5c0,1-0.2,1.8-0.7,2.4s-1.1,1.2-1.9,1.5s-1.6,0.5-2.6,0.5c-0.9,0-1.8-0.2-2.6-0.5s-1.4-0.8-1.8-1.5s-0.7-1.5-0.7-2.4
			v-7.5H209.2z"/>
		<path class="st1" d="M228.6,151.3c-0.3,0.5-0.8,1-1.5,1.3c-0.7,0.3-1.6,0.5-2.6,0.5h-2.4v4.8H220v-11.8h4.5c1,0,1.8,0.2,2.5,0.5
			c0.7,0.3,1.2,0.7,1.6,1.3c0.3,0.5,0.5,1.1,0.5,1.8C229.1,150.2,228.9,150.8,228.6,151.3z M226.3,151.1c0.4-0.3,0.6-0.8,0.6-1.4
			c0-1.3-0.8-1.9-2.4-1.9h-2.4v3.9h2.4C225.3,151.6,225.9,151.4,226.3,151.1z"/>
		<path class="st1" d="M233.3,147.7v3.5h4.5v1.6h-4.5v3.6h5v1.6h-7.2v-11.8h7.2v1.6H233.3z"/>
	</g>
</g>
</svg>
